Coordinates
version=1
nRows=19
nColumns=36
inDegrees=yes

Units are S.I. units (second, meters, Newtons, ...)
If the header above contains a line with 'inDegrees', this indicates whether rotational values are in degrees (yes) or radians (no).

endheader
time	pelvis_tilt	pelvis_list	pelvis_rotation	pelvis_tx	pelvis_ty	pelvis_tz	hip_flexion_r	hip_adduction_r	hip_rotation_r	knee_angle_r	knee_angle_r_beta	ankle_angle_r	subtalar_angle_r	mtp_angle_r	hip_flexion_l	hip_adduction_l	hip_rotation_l	knee_angle_l	knee_angle_l_beta	ankle_angle_l	subtalar_angle_l	mtp_angle_l	lumbar_extension	lumbar_bending	lumbar_rotation	arm_flex_r	arm_add_r	arm_rot_r	elbow_flex_r	pro_sup_r	arm_flex_l	arm_add_l	arm_rot_l	elbow_flex_l	pro_sup_l
      0.00000000	      3.47801517	      2.03787008	     11.00967561	     -0.14456370	      1.32073797	      0.36206336	     -3.06210702	     -2.83987190	      0.97051749	      2.87569318	      0.05019031	      5.06178873	    -10.12737582	     -6.63187961	     -2.47725379	     -1.95235204	     -1.59062036	      9.19108898	      0.16041476	      9.42013651	     -4.32833077	     -6.63187961	     -9.86260978	      1.31720466	      2.87155363	      1.30604395	    -10.36939040	      1.79890207	     22.45831220	     91.97607013	      5.00372481	     -9.09539167	     -0.36737346	     28.97468811	     96.32611473
      0.01666670	      3.50601540	      1.87881920	      9.95665454	     -0.14235685	      1.32100957	      0.36145448	     -2.37882558	     -2.64653233	      2.25922993	      4.21376798	      0.07354413	      7.46179648	     -9.81359299	     -6.80093796	     -2.73577412	     -2.11394319	     -2.43039632	      9.39523209	      0.16397773	      9.33217080	     -4.84432666	     -6.80093796	     -8.73227120	      2.27908946	      3.70708494	      1.59166808	    -10.51671734	      3.99109366	     21.14788676	     91.51517384	      4.11159113	     -8.28458647	      0.11833278	     28.01988806	     94.41312654
      0.03333330	      3.90079542	      1.88781830	      9.94938731	     -0.14260717	      1.32210810	      0.36130569	     -2.35917278	     -2.56681924	      2.89961355	      5.31657120	      0.09279167	      7.53562976	    -10.23386291	     -6.95708924	     -2.96468853	     -2.34129472	     -3.05338532	      9.25475837	      0.16152601	      8.92660810	     -4.66036981	     -6.95708924	     -9.05095572	      2.88784303	      3.79118059	      1.31977083	    -10.80548485	      5.84362885	     21.43713149	     90.00052503	      4.10689566	     -8.18204519	      1.36348944	     28.13961461	     92.27103604
      0.05000000	      3.39439084	      1.87921628	     10.53678546	     -0.15048515	      1.32014495	      0.36456346	     -1.13534257	     -2.68048788	      2.11420233	      6.52760654	      0.11392823	      8.27374459	     -9.45076218	     -6.97201241	     -1.50703569	     -2.50922045	     -3.25540738	     10.17942331	      0.17766445	      9.61756508	     -4.18467199	     -6.97201241	     -8.89689436	      3.25681429	      3.58419543	      0.97518348	    -10.84362904	      6.07338497	     22.56625318	     89.80220541	      4.16385571	     -8.22393860	      1.61458709	     28.93852603	     92.14147791
      0.06666670	      2.76623347	      1.97885863	     10.59679990	     -0.15077841	      1.31597366	      0.36491138	      0.41294311	     -2.93268144	      1.55031318	      8.10220593	      0.14141017	      9.20660787	     -8.54867722	     -6.99549189	      0.29547319	     -2.48766487	     -3.60625190	     11.81373998	      0.20618866	     10.76595643	     -4.00422055	     -6.99549189	     -8.72513141	      3.34699282	      4.00510849	      0.41889676	    -10.99125855	      6.19037187	     23.83558956	     88.94411156	      3.89346768	     -8.19742773	      1.79344820	     29.92347465	     91.47760452
      0.08333330	      2.06738938	      2.19005714	     10.57318750	     -0.15140562	      1.31580843	      0.36549622	      1.90900754	     -3.41410853	      1.06907864	      9.37019617	      0.16354077	      9.86361441	     -7.89122903	     -7.06363387	      1.95021692	     -2.26454406	     -3.91368177	     13.16417862	      0.22975826	     11.57987159	     -3.93402136	     -7.06363387	     -8.68002130	      3.35058471	      4.11334185	      0.12984123	    -11.15051596	      6.35070014	     25.38803028	     85.91759418	      3.45391860	     -8.26751531	      2.06783378	     31.00031416	     88.83731415
      0.10000000	      1.00929253	      2.23659307	     10.70139065	     -0.15891901	      1.31477733	      0.36941480	      3.93638784	     -3.72343448	      0.58565331	     10.99316106	      0.19186686	     10.62124063	     -7.26874883	     -7.07431732	      4.33016048	     -2.19775214	     -4.23210416	     15.01116680	      0.26199429	     12.32419939	     -3.76183341	     -7.07431732	     -8.23639137	      3.47083694	      4.45517804	     -0.00389805	    -11.35117756	      6.47603488	     26.02739068	     85.23018206	      3.46626212	     -8.37447854	      2.62444451	     31.52534233	     88.67364700
      0.11666670	      0.58201985	      2.38668133	     10.62199248	     -0.15090960	      1.31605383	      0.37244731	      4.86707112	     -3.93826980	      0.37209692	     11.96768227	      0.20887546	     11.22888833	     -6.68080209	     -7.20682709	      5.22739490	     -2.11175130	     -4.69294799	     15.72918820	      0.27452612	     12.51347487	     -3.63666413	     -7.20682709	     -8.23538156	      3.46307504	      5.17278764	     -0.60704687	    -11.62064814	      7.81696435	     27.26252081	     76.68881360	      3.49968507	     -8.73474157	      4.83592231	     31.76972373	     84.78270511
      0.13333330	      0.05742319	      2.45480534	     10.62340080	     -0.15835712	      1.31790722	      0.37612500	      5.91395297	     -4.03599471	      0.33302575	     12.88146859	      0.22482404	     11.75361350	     -6.15784093	     -7.21344761	      6.29476634	     -2.10366728	     -5.09479204	     16.39857604	      0.28620914	     12.46109626	     -3.41714044	     -7.21344761	     -8.19803246	      3.47587254	      5.32577484	     -0.48161750	    -11.63161885	      8.04126478	     27.63368445	     76.58216926	      3.12157556	     -8.94398464	      5.03701533	     32.35409451	     84.70065507
      0.15000000	     -0.18207328	      2.50250958	     10.62254123	     -0.15873054	      1.31768482	      0.37601872	      6.47482749	     -3.99925522	      0.45561577	     13.51375324	      0.23585949	     12.12766725	     -5.86063987	     -7.23393495	      6.80874914	     -2.12015176	     -5.41075644	     16.68417639	      0.29119381	     12.21518376	     -3.30485112	     -7.23393495	     -8.45940898	      3.51666132	      5.37195272	     -0.40778350	    -11.64888932	      8.16239460	     28.33168864	     75.35237636	      2.67545133	     -9.17184617	      5.14014508	     33.31671514	     83.23253720
      0.16666670	     -0.56643523	      2.54983334	     10.69714435	     -0.15889570	      1.31095814	      0.37609440	      7.20028603	     -4.05404467	      0.31307191	     14.08032502	      0.24574803	     12.73744020	     -5.08119235	     -7.26101994	      7.40513119	     -2.06550675	     -5.63715244	     16.90017858	      0.29496376	     12.19210200	     -2.95802421	     -7.26101994	     -8.37279224	      3.49213744	      5.42720716	     -0.39770602	    -11.70568281	      8.53074522	     28.46032455	     74.08104620	      2.21823222	     -9.44990278	      5.85140383	     33.72646377	     81.92914397
      0.18333330	     -1.13610034	      2.46317151	     10.88549414	     -0.15897495	      1.31050156	      0.37590279	      7.92764214	     -3.96318144	      0.47726745	     14.31530772	      0.24984925	     13.05268166	     -5.19946065	     -7.27280873	      8.20344445	     -2.06360546	     -5.56036247	     17.18794065	      0.29998616	     12.12997026	     -3.07757808	     -7.27280873	     -7.87111170	      3.56029956	      5.28808661	     -0.94321800	    -11.87786354	      8.50275500	     29.59385514	     73.27102243	      1.41221491	     -9.62692926	      5.87885922	     34.81418230	     80.85647522
      0.20000000	     -0.58572164	      2.55771163	     10.83159060	     -0.16722828	      1.31087201	      0.37976092	      7.36811278	     -3.77870778	      0.72351849	     14.46733725	      0.25250267	     13.19493223	     -5.13955033	     -7.28144987	      7.64925416	     -2.14613717	     -5.71912006	     17.08975390	      0.29827247	     11.96460409	     -2.88193163	     -7.28144987	     -8.84058424	      3.55847757	      5.47273912	     -0.36286342	    -11.89553002	      8.58411490	     29.47486817	     73.24890662	      1.93886926	     -9.74155530	      6.62902411	     33.88310243	     81.27964358
      0.21666670	     -0.65101620	      2.53182643	     10.92067369	     -0.16752446	      1.31083310	      0.37962604	      7.56238227	     -3.61379924	      0.90978186	     14.83327950	      0.25888957	     13.38345657	     -5.19829494	     -7.28834753	      7.84990681	     -2.20494327	     -5.69814951	     17.09591115	      0.29837994	     11.91575658	     -2.83815362	     -7.28834753	     -9.01337615	      3.58427958	      5.44822924	     -0.20172708	    -12.02859321	      8.41798093	     30.12377183	     72.54522367	      1.74254336	     -9.84407707	      6.84968947	     34.23684701	     80.58217135
      0.23333330	     -0.71847989	      2.48857919	     10.96851072	     -0.16771606	      1.31062048	      0.37953765	      7.72974361	     -3.45969513	      0.99905846	     15.14806837	      0.26438367	     13.59317939	     -5.22382636	     -7.30845574	      8.07375005	     -2.28407802	     -5.68467427	     17.24968393	      0.30106378	     11.83938988	     -2.81192719	     -7.30845574	     -9.04179286	      3.65813654	      5.83412829	     -0.31231740	    -12.16636301	      7.82382184	     30.59531272	     72.40166147	      2.10481811	     -9.95436073	      8.02958152	     33.40694340	     81.38712203
      0.25000000	     -0.75957415	      2.45071640	     11.04072179	     -0.17542181	      1.31066719	      0.38313741	      8.01042229	     -3.28727784	      1.16118924	     15.51444489	      0.27077814	     13.65294126	     -5.18381488	     -7.30917717	      8.54260564	     -2.37368458	     -5.45979791	     17.53996779	      0.30613019	     11.89081632	     -2.75849695	     -7.30917717	     -9.49361489	      3.71631923	      5.87436322	      0.14730667	    -12.28551187	      7.73275882	     30.82542342	     72.40619839	      2.29054675	    -10.06045924	      8.03300461	     33.44688540	     81.42258484
      0.26666670	     -0.90808738	      2.45558877	     11.04897857	     -0.16772798	      1.31030268	      0.37949080	      8.36329286	     -3.26414955	      1.17104746	     15.86390966	      0.27687746	     13.98922197	     -5.18289848	     -7.31294078	      8.88267939	     -2.36192050	     -5.38780876	     17.68800614	      0.30871395	     11.96837049	     -2.85344759	     -7.31294078	     -9.57917837	      3.76909975	      5.70390251	      0.26848689	    -12.38712758	      7.44515579	     31.45242485	     72.47075223	      2.00612408	    -10.18030539	      8.09245690	     33.56995891	     81.61548871
      0.28333330	     -0.94680526	      2.43674073	     11.02842755	     -0.17542578	      1.30683581	      0.38324840	      8.82052507	     -3.19222368	      1.22904346	     16.49732483	      0.28793264	     14.22402715	     -5.18423879	     -7.31552628	      9.30089076	     -2.42093129	     -5.22222958	     18.12027936	      0.31625854	     12.11568552	     -2.89462915	     -7.31552628	     -9.93650519	      3.84168535	      5.71598061	      0.61961217	    -12.51085168	      7.33387064	     31.78096429	     72.51199013	      2.08561639	    -10.22962551	      8.17281617	     33.74664582	     81.68349018
      0.30000000	     -0.99068971	      2.43145457	     10.92864832	     -0.17531843	      1.30670831	      0.38329917	      9.13679922	     -3.14595580	      1.29735175	     16.89624844	      0.29489517	     14.44788153	     -5.12848023	     -7.32371469	      9.59914111	     -2.46846642	     -5.07353878	     18.42506880	      0.32157812	     12.28591757	     -2.95450386	     -7.32371469	    -10.27993533	      3.88557335	      5.72125317	      0.87854410	    -12.68631571	      7.23065247	     32.47121508	     71.74078374	      2.03376824	    -10.26126024	      8.14397296	     34.48287130	     80.49779670
